<?xml version="1.0" encoding="UTF-8" standalone="no"?>
<svg width="250px" height="137px" viewBox="0 0 250 137" version="1.1" xmlns="http://www.w3.org/2000/svg" xmlns:xlink="http://www.w3.org/1999/xlink" xmlns:sketch="http://www.bohemiancoding.com/sketch/ns">
    <title>Slice 1</title>
    <description>Created with Sketch (http://www.bohemiancoding.com/sketch)</description>
    <defs></defs>
    <g id="Page 1" stroke="none" stroke-width="1" fill="none" fill-rule="evenodd">
        <g id="Layer_1" fill="#CC0000">
            <path d="M172.088469,79.6029782 C173.666998,78.6424836 175.260934,77.3661418 176.53827,76.4056473 C187.690358,67.1474364 196.290755,57.2236545 198.204274,51.7999491 L198.204274,50.8404509 C198.204274,50.1933127 198.204274,49.87348 197.581014,49.87348 C192.467197,49.87348 175.900596,66.5002982 171.770875,79.9208182 L172.088469,79.6029782 L172.088469,79.6029782 Z M130.65159,77.6939455 C146.268887,65.8591382 162.830517,48.5881709 164.425447,41.5643055 L164.425447,40.91916 C164.425447,40.2859709 164.425447,39.9596618 163.790755,39.9596618 C158.69334,39.9596618 135.752982,61.3834727 130.65159,77.6939455 L130.65159,77.6939455 Z M34.7321074,88.2354727 C30.5949304,85.3609636 24.2316103,82.8062873 18.4850895,82.8062873 C12.75,82.8062873 9.24652087,85.0471091 9.24652087,87.9290909 C9.24652087,90.7956291 13.7032803,92.3923018 18.4850895,92.3923018 C24.2316103,92.3923018 29.6366799,90.7956291 34.7321074,88.2354727 L34.7321074,88.2354727 Z M82.5377734,50.8409491 C93.6913519,47.3168109 104.523857,39.9596618 112.180417,31.9608545 C119.502485,24.6136691 125.543738,15.9861564 125.543738,11.8233491 C125.543738,10.8738145 124.919483,10.2226909 123.951789,10.2226909 C120.455268,10.2226909 114.080517,14.7187818 105.473658,23.3467927 C98.7842942,30.05232 90.8240557,39.3349418 82.5377734,50.8409491 L82.5377734,50.8409491 Z M249.508946,78.3321164 C239.951292,87.9290909 209.67495,114.139931 201.708748,136.514273 L192.150099,133.963084 C195.33499,124.693415 204.894135,110.305425 215.738072,99.4311127 C213.502485,100.383636 210.956262,100.713433 209.052684,100.713433 C206.180417,100.713433 203.94831,99.7499491 202.681909,98.1532764 C201.709245,96.8629855 201.073559,95.2772727 201.073559,93.3522982 L201.073559,92.0739636 C191.833002,97.8359345 184.189364,100.713433 176.539264,100.713433 C170.813618,100.713433 166.02833,98.1532764 163.79175,93.6825927 C154.235586,98.1537745 145.304175,100.713433 137.667992,100.713433 C130.652584,100.713433 124.920477,97.8364327 122.374254,92.7026691 C112.80666,98.1532764 104.836978,100.713433 98.47167,100.713433 C94.639165,100.713433 91.7743539,99.4311127 89.8687873,97.5121164 C88.2639165,96.2268073 87.6302187,94.3227564 87.6302187,92.0739636 C81.5775348,95.9144473 72.6595427,100.713433 63.4130219,100.713433 C54.1714712,100.713433 47.7997018,97.5121164 43.027336,94.3227564 C35.3732604,98.46464 26.7664016,100.713433 17.5243539,100.713433 C10.8354871,100.713433 0,97.8364327 0,87.9290909 C0,79.9213164 7.96769384,74.4906364 19.1252485,74.4906364 C28.3528827,74.4906364 37.6088469,78.6424836 43.026839,82.8057891 C48.4388668,78.3321164 54.1709742,72.2533018 60.8643141,63.9506036 L56.4075547,63.9506036 C43.6491054,63.9506036 33.1595427,60.1131091 27.4045726,53.7069891 C24.2311133,50.1933127 22.6267396,46.0384764 22.6267396,41.2464655 C22.6267396,23.65168 45.2534791,9.91332 64.6809145,7.68445455 C65.9537773,10.5470073 67.2321074,13.0991927 68.1863817,15.6708073 C49.0621272,17.8936945 32.8195825,29.4191309 32.8195825,40.5968364 C32.8195825,47.9539855 41.111829,55.3066509 58.6267396,55.3066509 C61.8146123,55.3066509 64.6814115,55.3066509 67.5516899,54.6749564 C83.1610338,33.25264 107.067594,0 127.462724,0 C133.526839,0 136.709245,3.52314182 136.709245,8.62850909 C136.709245,18.8576764 127.772863,29.7389636 122.049205,35.4844945 C113.435885,44.4457891 97.1883698,57.5524545 74.554672,62.0251309 C65.9537773,74.1693091 58.6267396,82.4789818 51.6287276,88.2349745 C56.0904573,90.7951309 59.8956262,92.0734655 64.9965209,92.0734655 C77.1267396,92.0734655 88.5805169,80.8887855 97.8305169,71.6236 L98.1555666,71.2997818 L105.473161,76.7264764 L105.165507,77.3656436 C101.00994,81.8572509 97.1878728,86.9690945 97.1878728,89.5232727 C97.1878728,91.7551273 99.1068588,92.0734655 100.680417,92.0734655 C105.16501,92.0734655 112.492545,89.20892 120.787276,83.7573164 C121.735586,62.9766582 150.092942,31.0093273 167.294235,31.0093273 C172.087972,31.0093273 174.951292,33.5674909 174.951292,37.7223273 C174.951292,48.2758109 156.782803,70.6556327 130.650596,87.9285927 C132.240557,90.7951309 135.112326,92.0734655 140.534791,92.0734655 C144.673956,92.0734655 152.634195,90.1594509 162.193837,85.3604655 C163.480119,74.4901382 169.533797,62.97616 177.188867,54.6744582 C185.149105,46.3573127 193.749503,40.9181636 201.072068,40.9181636 C205.846918,40.9181636 208.714712,43.4828036 208.714712,47.6336545 C208.714712,56.58648 198.203777,72.2528036 172.719682,88.5642727 C173.666004,90.7946327 175.899602,92.0729673 179.416998,92.0729673 C187.060636,92.0729673 200.114314,84.0846218 210.64165,74.1688109 L217.961233,79.92032 C214.787773,83.7568182 211.597913,87.9280945 211.912525,90.4757964 C211.912525,91.1139673 212.222167,91.7551273 213.501491,91.7551273 C221.153082,91.7551273 233.256958,81.5249636 242.185885,72.5791127 L249.508946,78.3321164 L249.508946,78.3321164 Z M110.901093,57.2236545 C114.393638,57.2236545 116.944831,60.1136073 116.944831,63.3019709 C116.944831,66.8300945 114.393638,69.6956364 110.901093,69.6956364 C107.400596,69.6956364 104.835984,66.8300945 104.835984,63.3019709 C104.835984,60.1136073 107.400596,57.2236545 110.901093,57.2236545 L110.901093,57.2236545 Z M110.901093,57.2236545" id="Shape"></path>
        </g>
    </g>
</svg>