<?xml version="1.0" encoding="UTF-8" standalone="no"?>
<svg
   xmlns:dc="http://purl.org/dc/elements/1.1/"
   xmlns:cc="http://creativecommons.org/ns#"
   xmlns:rdf="http://www.w3.org/1999/02/22-rdf-syntax-ns#"
   xmlns:svg="http://www.w3.org/2000/svg"
   xmlns="http://www.w3.org/2000/svg"
   xmlns:sodipodi="http://sodipodi.sourceforge.net/DTD/sodipodi-0.dtd"
   xmlns:inkscape="http://www.inkscape.org/namespaces/inkscape"
   version="1.1"
   id="Layer_1"
   x="0px"
   y="0px"
   width="803"
   height="160"
   viewBox="0 0 803 160"
   enable-background="new 0 0 612 792"
   xml:space="preserve">
<path
   style="fill:#00529c;fill-rule:evenodd"
   id="path7"
   d="m 677.34774,143.4066 -6.22361,-7.82023 c -4.15046,4.13328 -9.67018,8.52417 -15.2242,8.52417 -10.1466,0 -11.75186,-10.15952 -11.75186,-21.22462 V 61.555574 H 670.8924 V 49.134114 H 643.93345 V 17.994678 H 633.774 c -8.05634,18.202942 -18.45622,29.28527 -38.96831,32.723258 v 10.37839 h 13.61035 v 49.818794 c 0.016,12.88503 0.4592,21.42638 2.2963,27.63281 4.60544,15.70921 17.52908,21.45208 32.76187,21.45208 12.42572,0 23.04022,-4.8544 33.87353,-16.59341 l 0,0 z"
   clip-rule="evenodd" /><path
   style="fill:#00529c;fill-rule:evenodd"
   id="path9"
   d="M 571.34489,0.28101122 C 557.03486,3.7233191 532.28639,6.2599838 525.62503,6.2599838 l 0.0107,12.4299932 c 5.32223,0 10.62302,-0.240531 14.99673,-0.695299 V 144.34659 h -15.70067 l 0.004,12.42572 H 593.1896 V 144.34659 H 576.81085 V 4.6375488 c 0,-3.85862319 -2.33064,-4.63978772 -3.42513,-4.6355211 -0.46773,-0.00426662 -1.09023,0.05599937 -1.86281,0.22773077 l -0.176,0.0533327 0,0 z"
   clip-rule="evenodd" /><path
   style="fill:#004990;fill-rule:evenodd"
   id="path11"
   d="m 521.2599,97.987216 c 0,-28.834555 -20.98851,-50.484124 -53.4843,-50.475537 -31.57724,0 -56.04241,22.108817 -56.03814,55.076711 0,33.90789 26.98039,57.40735 60.17575,57.40735 21.91564,0 38.26869,-11.98797 48.90035,-28.11781 l -11.30979,-8.99633 c -4.59259,8.30962 -18.23729,21.91997 -31.81761,21.91997 -21.90706,0 -27.19068,-18.91973 -27.195,-39.44905 v -0.6953 h 66.39077 c 3.93163,0.004 4.39947,-0.67386 4.37797,-6.670004 l 0,0 z M 485.30468,86.209589 c 0,1.862806 -0.24053,3.704118 -0.22719,2.789889 h -34.59033 c 0,-7.837405 3.44657,-30.418377 18.68368,-30.418377 12.89356,0.0043 16.13411,11.039395 16.13411,27.628488 l 0,0 z"
   clip-rule="evenodd" /><path
   style="fill:#00529c;fill-rule:evenodd"
   id="path13"
   d="m 803.00003,139.93858 -8.78598,-5.98756 c -1.58809,3.00882 -4.35221,7.61 -8.05633,7.61 -4.36081,0 -5.28794,-2.086 -5.28794,-10.85481 V 91.312945 c 0,-7.142106 0,-14.546023 -2.07737,-21.692449 -5.75577,-18.447579 -26.28077,-22.117404 -43.11882,-22.117404 -11.99223,0.01067 -25.13043,2.09027 -36.20417,6.918962 -8.98774,3.931582 -17.05693,9.446987 -17.05693,17.975477 0,9.455574 6.22787,12.674631 12.9279,12.666098 8.06919,0 14.05675,-5.747189 14.05675,-11.043716 0,-10.159459 3.46802,-14.309972 18.67937,-14.309972 13.12534,0 17.0398,7.618528 17.06124,20.297531 0,8.751635 -0.24053,9.927728 -3.69979,9.910555 -11.27545,0 -27.8903,2.789889 -38.71941,7.845992 -12.00077,5.978971 -22.38775,15.666331 -22.36631,30.456991 -0.0213,18.63648 14.52459,31.779 33.1911,31.779 12.67041,0 24.4394,-6.6571 32.97648,-15.43455 3.89729,10.58874 12.43863,15.44314 23.73552,15.43455 14.97097,0 25.8172,-6.6571 32.74469,-20.06143 l 0,0 z m -58.3387,-8.28385 c -2.54525,3.45516 -7.82028,9.20667 -16.34445,9.20667 -9.0135,0 -14.99674,-7.14216 -14.99674,-15.88521 0,-16.3788 16.82946,-22.62385 31.34119,-24.42655 v 31.10509 l 0,0 z"
   clip-rule="evenodd" /><path
   style="fill:#00529c;fill-rule:evenodd"
   id="path15"
   d="m 401.36766,79.762835 c 0,-46.337931 -30.88622,-73.9835924 -82.2931,-73.9835924 -20.07434,0 -37.82662,0.9228162 -47.05041,0.9228162 L 243.49429,6.6913923 V 19.786711 h 20.00564 l -0.0107,124.089909 -20.68808,-0.0107 v 12.9021 h 77.88941 c 47.71136,0.004 80.69643,-31.3412 80.67925,-77.005215 l 0,0 z m -40.57357,-1.141747 c 0,40.367542 -18.91542,65.249082 -49.56131,65.249082 h -8.76022 l 0.004,-123.798075 c 4.81579,-0.927136 6.67428,-0.927136 10.60591,-0.927136 31.0965,0 47.71136,18.451898 47.71136,59.476129 l 0,0 z"
   clip-rule="evenodd" /><path
   style="fill:#00529c;fill-rule:evenodd"
   id="path17"
   d="m 213.07165,151.55739 c 4.56256,0 8.25377,-3.72988 8.25377,-8.29239 0,-4.56256 -3.70839,-8.26668 -8.25377,-8.26668 -4.57974,0 -8.2838,3.70412 -8.2838,8.26668 0,4.56251 3.70406,8.29239 8.2838,8.29239 l 0,0 z m 0,-1.57524 c -3.73415,0 -6.72579,-2.98301 -6.72579,-6.70862 0.0107,-3.73841 2.99164,-6.70856 6.72579,-6.70856 3.73414,0 6.69571,2.97442 6.69571,6.70003 0,3.72982 -2.96157,6.71715 -6.69571,6.71715 l 0,0 z m 1.94003,-5.97033 c 1.59241,-0.1072 2.44653,-0.78975 2.44653,-2.42936 0,-0.93999 -0.24906,-1.81129 -1.05588,-2.33064 -0.66527,-0.39466 -1.66964,-0.4032 -2.42077,-0.4032 h -4.30929 v 8.90193 l 1.71683,0.0107 v -3.747 h 1.77268 l 1.98728,3.747 2.04302,-0.0107 -2.1804,-3.73847 0,0 z m -3.62258,-1.34772 v -2.54957 l 2.17614,0.016 c 0.87562,0 2.15464,-0.016 2.15464,1.18036 0,1.1331 -0.7082,1.36489 -1.69966,1.34772 h -2.63112 l 0,0.004 z"
   clip-rule="evenodd" /><path
   style="fill:#ed1c2e;fill-rule:evenodd"
   id="path19"
   d="m 200.93776,155.48897 c 0.0213,-0.49333 -0.2704,-0.99578 -1.12026,-1.34345 -28.4912,-12.29693 -63.81117,-23.67542 -99.13973,-23.67542 -0.1504,0 -0.29173,0 -0.4464,0 -35.319974,0 -70.644269,11.37417 -99.0925345,23.67542 -0.84127051,0.34346 -1.14174713,0.84559 -1.13316056,1.34345 -0.06879922,0.68676 0.50239434,1.3091 1.09449436,1.3091 0,0 0.047999,0 0.115732,0 5.4552985,0 197.5112687,0 198.4770187,0 0.0533,0 0.0987,0 0.11573,0 0.57946,0 1.20612,-0.59658 1.12884,-1.3091 l 0,0 z"
   clip-rule="evenodd" /><path
   style="fill:#00529c;fill-rule:evenodd"
   id="path21"
   d="m 100.45457,110.18548 c -31.654524,0.032 -62.557909,13.36139 -95.2167407,30.6716 l -1.7640868,0.9314 c -0.2703969,0.12427 -0.5837267,0.21013 -0.9099097,0.21013 -1.0730546,0 -1.97869772,-0.90564 -1.97869772,-2.01299 0,-0.42933 0.14613168,-0.81977 0.3903956,-1.15028 L 1.889707,137.49189 C 10.680008,124.53822 81.169773,27.338519 97.097914,4.0236357 c 1.038708,-1.5966753 2.06451,-2.2534146 3.356446,-2.2534146 1.29619,0 2.30914,0.6567393 3.3822,2.2534146 15.90238,23.3191503 86.39641,120.5188543 95.20815,133.4682543 l 0.92282,1.34345 c 0.24479,0.3264 0.37759,0.72106 0.37759,1.15028 0,1.10735 -0.90132,2.01299 -2.00872,2.01299 -0.31786,0 -0.63951,-0.0859 -0.89706,-0.21013 l -1.77694,-0.9314 c -32.65456,-17.31021 -63.52787,-30.71453 -95.20815,-30.6716 l 0,0 z"
   clip-rule="evenodd" />
</svg>